<svg xmlns="http://www.w3.org/2000/svg" xmlns:xlink="http://www.w3.org/1999/xlink" width="500" zoomAndPan="magnify" viewBox="0 0 375 374.999991" height="500" preserveAspectRatio="xMidYMid meet" version="1.0"><defs><clipPath id="id1"><path d="M 26 1 L 349.472656 1 L 349.472656 374.535156 L 26 374.535156 Z M 26 1 " clip-rule="nonzero"/></clipPath></defs><path fill="#ffffff" d="M 345.578125 62.363281 C 345.578125 61.503906 344.882812 60.808594 344.019531 60.808594 L 343.316406 60.808594 C 342.375 59.886719 341.085938 59.320312 339.667969 59.320312 L 174.648438 60.652344 C 174.714844 60.136719 174.734375 59.796875 174.734375 59.796875 L 182.503906 59.632812 C 182.503906 59.632812 181.207031 56.71875 177.648438 55.746094 C 174.089844 54.769531 162.75 54.769531 160.808594 57.195312 C 160.808594 57.195312 159.820312 58.964844 159.75 60.765625 L 154.996094 60.796875 L 94.777344 60.796875 C 90.46875 60.796875 86.980469 64.289062 86.980469 68.59375 L 86.980469 126.773438 L 61.484375 150.140625 C 61.484375 150.140625 63.789062 160.824219 64.398438 164.226562 C 65.007812 167.628906 66.582031 168.226562 66.582031 168.226562 L 86.980469 170.410156 L 86.980469 170.882812 L 74.832031 169.515625 C 74.832031 169.515625 72.570312 174.855469 72.570312 178.414062 C 72.570312 181.972656 75.808594 186.347656 75.808594 186.347656 L 86.980469 183.949219 L 86.980469 184.050781 C 83.664062 184.964844 76.179688 186.976562 73.378906 187.15625 C 69.734375 187.402344 63.988281 190.636719 58.480469 188.777344 C 52.972656 186.914062 50.300781 185.21875 48.117188 178.414062 C 45.933594 171.621094 44.714844 167 44.714844 167 L 27.96875 183.773438 C 27.96875 183.773438 26.996094 186.6875 29.1875 189.117188 C 31.371094 191.542969 58.089844 218.738281 58.089844 218.738281 C 58.089844 218.738281 60.273438 221.164062 64.164062 219.222656 C 65 218.808594 66.90625 217.308594 69.394531 215.214844 C 67.191406 217.726562 63.085938 221.695312 59.792969 220.6875 L 62.953125 349.359375 L 82.140625 349.117188 L 83.117188 344.75 L 95.988281 347.90625 C 95.988281 347.90625 110.796875 292.308594 111.53125 281.867188 C 112.261719 271.429688 112.984375 264.992188 110.796875 255.039062 C 110.773438 254.925781 110.746094 254.796875 110.71875 254.675781 L 252.644531 254.675781 C 255.222656 258.007812 262.121094 266.679688 264.601562 267.460938 C 267.675781 268.4375 297.472656 268.914062 297.472656 268.914062 L 313.824219 267.941406 L 316.695312 256.449219 C 316.816406 258.546875 316.910156 262.078125 316.25 263.410156 C 315.277344 265.347656 313.824219 267.941406 313.824219 267.941406 L 335.515625 268.261719 C 335.515625 268.261719 338.917969 266.808594 338.265625 264.21875 C 337.902344 262.746094 336.394531 258.277344 335.152344 254.664062 L 345.585938 254.664062 L 345.585938 62.363281 Z M 316.5625 254.824219 C 316.5625 254.824219 316.617188 255.34375 316.667969 256.128906 L 316.085938 254.65625 L 321.261719 254.65625 Z M 53.710938 109.96875 C 54.199219 106.808594 57.601562 106.566406 57.601562 106.566406 L 70.960938 92.238281 C 70.960938 92.238281 78.730469 97.457031 80.550781 101.824219 C 82.367188 106.191406 82.367188 112.265625 79.941406 114.449219 C 77.511719 116.632812 73.265625 116.875 73.265625 116.875 L 74.117188 121.121094 L 62.703125 122.816406 L 61.003906 111.648438 C 61.003906 111.664062 53.234375 113.125 53.710938 109.96875 Z M 219.265625 22.574219 L 239.019531 17.554688 L 241.933594 24.027344 L 244.359375 22.894531 C 244.359375 22.894531 248.25 21.113281 249.382812 24.347656 C 250.511719 27.585938 244.203125 30.820312 244.203125 30.820312 L 244.527344 33.734375 L 248.25 36.484375 C 248.25 36.484375 245.988281 40.527344 240.96875 41.660156 C 235.945312 42.789062 235.625 39.066406 235.625 39.066406 C 219.265625 40.539062 219.265625 22.574219 219.265625 22.574219 Z M 282.886719 301.113281 L 296.644531 321.347656 C 296.644531 321.347656 294.214844 320.371094 290.8125 322.15625 C 287.410156 323.9375 288.0625 329.117188 288.0625 329.117188 C 288.0625 329.117188 285.148438 335.265625 281.589844 339.144531 C 278.03125 343.035156 276.566406 343.84375 275.269531 342.871094 C 273.976562 341.894531 273.488281 338.171875 273.488281 338.171875 L 276.726562 330.890625 L 275.59375 321.339844 L 269.535156 312.515625 C 269.023438 312.585938 267.910156 312.648438 265.714844 312.4375 C 262.3125 312.117188 263.125 308.226562 263.125 308.226562 L 257.136719 301.757812 L 268.632812 301.433594 Z M 282.886719 301.113281 " fill-opacity="1" fill-rule="evenodd"/><path fill="#709775" d="M 62.699219 122.835938 L 74.117188 121.136719 C 74.117188 121.136719 74.683594 124.695312 77.277344 124.695312 C 79.871094 124.695312 89.90625 123.566406 89.90625 123.566406 L 62.058594 149.785156 C 62.058594 149.785156 63.03125 166.941406 64.972656 167.914062 C 66.914062 168.890625 74.847656 169.53125 74.847656 169.53125 C 74.847656 169.53125 70.636719 176.171875 72.257812 179.5625 C 73.875 182.957031 75.816406 186.359375 75.816406 186.359375 C 75.816406 186.359375 63.996094 189.757812 58.488281 188.785156 C 52.980469 187.8125 50.71875 185.871094 46.828125 173.570312 C 42.9375 161.269531 40.675781 148.96875 41.648438 144.433594 C 42.625 139.902344 43.105469 134.40625 46.671875 132.457031 C 50.238281 130.507812 60.59375 127.757812 60.59375 127.757812 C 60.59375 127.757812 64.484375 126.480469 62.699219 122.835938 Z M 63.675781 373.378906 L 101.320312 372.890625 L 100.347656 370.707031 L 103.992188 369.734375 C 103.992188 369.734375 102.054688 364.878906 99.867188 362.9375 C 97.683594 361 93.550781 359.292969 91.367188 356.386719 C 89.183594 353.472656 91.121094 347.402344 91.121094 347.402344 L 83.109375 344.730469 L 82.132812 349.097656 L 64.15625 349.097656 Z M 348.535156 296.257812 L 348.535156 274.25 C 348.535156 271.34375 346.175781 268.984375 343.269531 268.984375 L 214.644531 268.984375 C 211.734375 268.984375 209.378906 271.34375 209.378906 274.25 L 209.378906 296.257812 C 209.378906 299.164062 211.734375 301.519531 214.644531 301.519531 L 343.269531 301.519531 C 346.1875 301.519531 348.535156 299.164062 348.535156 296.257812 Z M 242.089844 59.796875 L 229.460938 79.539062 L 226.226562 80.511719 C 226.226562 80.511719 228.007812 83.582031 229.628906 86.984375 C 231.246094 90.386719 229.140625 94.585938 229.140625 94.585938 C 229.140625 94.585938 231.402344 95.71875 237.886719 94.265625 C 244.359375 92.8125 246.789062 87.628906 246.789062 87.628906 C 246.789062 87.628906 267.675781 52.34375 268.484375 49.429688 C 269.292969 46.515625 267.996094 41.496094 263.460938 39.234375 C 258.929688 36.972656 248.242188 36.484375 248.242188 36.484375 C 248.242188 36.484375 245.492188 40.207031 240.957031 41.660156 C 236.425781 43.113281 236.746094 38.421875 236.746094 38.421875 C 236.746094 38.421875 236.746094 38.421875 233.832031 38.910156 C 230.914062 39.398438 224.277344 36.804688 224.277344 36.804688 C 224.277344 36.804688 219.253906 38.589844 213.425781 42.3125 C 207.59375 46.035156 193.027344 59.789062 193.027344 59.789062 L 242.089844 59.789062 Z M 217.3125 11.890625 C 217.3125 11.890625 218.125 19.492188 219.097656 21.441406 C 220.074219 23.390625 239.175781 17.074219 243.054688 14.316406 C 246.945312 11.570312 245.484375 9.621094 245.484375 9.621094 L 241.273438 3.46875 C 241.28125 3.46875 224.605469 0.886719 217.3125 11.890625 Z M 153.203125 155.769531 L 153.847656 185.871094 L 180.078125 201.730469 L 207.925781 186.515625 L 207.925781 155.761719 L 179.753906 138.605469 Z M 303.769531 107.863281 L 303.449219 117.570312 L 313.160156 124.367188 L 321.90625 118.214844 L 322.230469 107.210938 L 313.160156 102.355469 Z M 303.769531 107.863281 " fill-opacity="1" fill-rule="evenodd"/><path fill="#111d13" d="M 79.460938 86.90625 C 80.4375 92.246094 77.277344 96.613281 77.277344 96.613281 L 70.960938 92.246094 L 57.601562 106.574219 C 57.601562 106.574219 53.476562 106.574219 53.710938 109.976562 C 53.957031 113.378906 60.996094 111.671875 60.996094 111.671875 L 62.449219 117.015625 C 62.449219 117.015625 63.902344 126.722656 61.71875 122.113281 C 59.535156 117.5 59.289062 119.441406 55.15625 117.257812 C 51.03125 115.074219 47.871094 112.160156 45.6875 108.035156 C 43.503906 103.914062 45.933594 96.144531 45.933594 96.144531 C 45.933594 96.144531 49.578125 93.230469 52.726562 90.804688 C 55.878906 88.375 58.070312 84.007812 60.742188 82.546875 C 63.414062 81.09375 65.113281 82.058594 65.113281 82.058594 C 65.113281 82.058594 66.566406 79.390625 69.722656 79.875 C 72.882812 80.363281 74.335938 83.277344 74.335938 83.277344 C 75.816406 81.5625 78.488281 81.5625 79.460938 86.90625 Z M 248.242188 22.574219 C 250.183594 23.871094 246.300781 12.210938 246.300781 12.210938 L 237.722656 17.066406 L 241.933594 24.027344 C 241.925781 24.027344 246.300781 21.277344 248.242188 22.574219 Z M 326.441406 193.160156 C 323.847656 188.949219 317.859375 181.347656 316.078125 175.195312 C 314.292969 169.046875 313.328125 160.957031 312.03125 157.230469 C 310.734375 153.507812 306.519531 148.332031 299.726562 149.140625 C 299.726562 149.140625 284.828125 136.839844 274.628906 153.1875 C 274.628906 153.1875 281.910156 164.511719 284.660156 164.679688 C 287.410156 164.84375 288.875 163.871094 289.515625 165.164062 C 290.160156 166.460938 286.601562 168.722656 286.601562 168.722656 L 287.246094 175.363281 L 292.265625 175.363281 L 293.5625 172.769531 C 293.5625 172.769531 299.070312 170.828125 299.550781 169.367188 C 299.550781 169.367188 301.003906 179.730469 300.359375 184.90625 C 299.714844 190.082031 297.121094 192.671875 296.636719 195.589844 C 296.148438 198.503906 296.148438 206.4375 300.359375 206.914062 C 304.570312 207.402344 306.347656 205.785156 306.347656 205.785156 C 306.347656 205.785156 309.585938 213.230469 315.738281 211.289062 C 321.890625 209.351562 320.4375 203.6875 320.4375 203.6875 C 320.4375 203.6875 321.734375 206.4375 325.613281 203.042969 C 329.496094 199.652344 329.035156 197.371094 326.441406 193.160156 Z M 234.640625 252.394531 L 234.320312 258.867188 C 234.320312 258.867188 221.371094 258.378906 220.558594 267.609375 C 220.558594 267.933594 225.738281 268.742188 230.59375 269.0625 C 235.449219 269.386719 258.121094 269.0625 258.121094 269.0625 L 251.644531 252.882812 Z M 289.039062 309.289062 C 275.679688 307.59375 273.984375 319 273.984375 319 C 273.984375 319 277.140625 323.851562 276.898438 328.707031 C 276.65625 333.5625 273.496094 338.171875 273.496094 338.171875 L 274.191406 342.53125 C 273.703125 341.25 273.660156 339.625 273.660156 339.625 C 273.660156 339.625 271.066406 343.027344 270.101562 346.90625 C 269.128906 350.792969 272.042969 352.414062 276.898438 352.246094 C 281.753906 352.082031 287.75 345.289062 287.75 345.289062 L 301.1875 329.75 C 301.1875 329.75 299.402344 325.382812 298.4375 323.765625 Z M 289.039062 309.289062 " fill-opacity="1" fill-rule="evenodd"/><g clip-path="url(#id1)"><path fill="#111d13" d="M 95.945312 80.964844 C 95.945312 80.414062 96.394531 79.964844 96.945312 79.964844 L 168.992188 79.964844 C 169.539062 79.964844 169.992188 80.414062 169.992188 80.964844 C 169.992188 81.511719 169.539062 81.964844 168.992188 81.964844 L 96.945312 81.964844 C 96.386719 81.964844 95.945312 81.511719 95.945312 80.964844 Z M 96.945312 86.949219 L 121.066406 86.949219 C 121.617188 86.949219 122.066406 86.496094 122.066406 85.949219 C 122.066406 85.402344 121.617188 84.949219 121.066406 84.949219 L 96.945312 84.949219 C 96.394531 84.949219 95.945312 85.402344 95.945312 85.949219 C 95.945312 86.496094 96.386719 86.949219 96.945312 86.949219 Z M 169.242188 85.453125 L 145.113281 85.453125 C 144.5625 85.453125 144.109375 85.90625 144.109375 86.453125 C 144.109375 87 144.5625 87.453125 145.113281 87.453125 L 169.242188 87.453125 C 169.792969 87.453125 170.242188 87 170.242188 86.453125 C 170.242188 85.90625 169.792969 85.453125 169.242188 85.453125 Z M 349.195312 274.265625 L 349.195312 295.648438 C 349.195312 299.121094 346.367188 301.945312 342.898438 301.945312 L 283.972656 301.945312 C 287.757812 306.96875 299.804688 323.078125 301.324219 326.898438 C 303.050781 331.195312 300.203125 333.988281 294.539062 339.554688 C 293.503906 340.574219 292.363281 341.695312 291.128906 342.9375 C 286.410156 347.707031 280.753906 353.414062 275.332031 353.414062 C 274.105469 353.414062 272.894531 353.125 271.710938 352.464844 C 266.351562 349.488281 269.519531 343.566406 272.070312 338.816406 C 272.703125 337.632812 273.304688 336.519531 273.785156 335.457031 L 274.417969 334.074219 C 276.289062 330.019531 276.402344 329.785156 275.339844 325.246094 C 274.722656 322.589844 271.859375 317.527344 269.242188 313.238281 C 268.859375 313.292969 268.300781 313.351562 267.664062 313.351562 C 266.421875 313.351562 264.863281 313.136719 263.699219 312.265625 C 262.851562 311.628906 262.339844 310.714844 262.15625 309.621094 L 255.917969 301.949219 L 215.105469 301.949219 C 211.632812 301.949219 208.804688 299.121094 208.804688 295.648438 L 208.804688 274.265625 C 208.804688 270.792969 211.632812 267.96875 215.105469 267.96875 L 220.152344 267.96875 C 220.046875 266.75 220.210938 264.53125 222.101562 262.042969 C 224.78125 258.503906 231.273438 257.902344 233.710938 257.796875 L 233.910156 255.457031 L 111.835938 255.457031 C 112.894531 264.453125 113.417969 272.507812 112.914062 278.007812 C 110.929688 299.5625 96.710938 348.148438 96.570312 348.644531 C 96.441406 349.082031 96.039062 349.367188 95.613281 349.367188 C 95.515625 349.367188 95.421875 349.359375 95.335938 349.324219 L 92.324219 348.445312 C 92.160156 348.769531 91.332031 350.523438 91.679688 353.359375 C 92.097656 356.746094 92.210938 357.660156 95.71875 359.242188 C 101 361.632812 104.132812 365.359375 104.542969 369.734375 C 104.585938 370.230469 104.261719 370.679688 103.777344 370.792969 L 101.757812 371.273438 C 102.15625 372.289062 102.382812 373.039062 102.410156 373.117188 C 102.496094 373.421875 102.4375 373.742188 102.253906 373.996094 C 102.0625 374.25 101.773438 374.394531 101.453125 374.394531 L 63.34375 374.5625 C 63.074219 374.5625 62.8125 374.457031 62.632812 374.257812 C 62.441406 374.066406 62.335938 373.804688 62.34375 373.535156 L 62.996094 349.863281 L 62.925781 349.863281 C 62.386719 349.863281 61.945312 349.429688 61.925781 348.890625 L 58.933594 221.136719 C 58.933594 221.007812 58.960938 220.878906 59.003906 220.753906 C 58.429688 220.484375 57.890625 220.113281 57.417969 219.640625 L 27.855469 189.679688 C 25.714844 187.515625 25.734375 184 27.882812 181.851562 L 44.085938 165.652344 C 43.808594 164.480469 43.503906 163.253906 43.183594 161.972656 C 41.214844 154.144531 38.769531 144.390625 41.773438 137.300781 C 44.496094 130.855469 54.15625 128.175781 59.671875 127.15625 C 60.796875 126.949219 61.640625 126.035156 61.734375 124.929688 C 61.761719 124.574219 61.777344 124.210938 61.789062 123.828125 C 61.742188 123.78125 61.710938 123.746094 61.675781 123.695312 L 59.273438 120.171875 C 58.609375 119.199219 57.628906 118.527344 56.523438 118.277344 C 53.023438 117.492188 44.828125 114.71875 44.277344 105.808594 C 43.738281 101.886719 43.488281 96.242188 47.523438 93.371094 C 48.28125 92.832031 48.996094 92.359375 49.664062 91.917969 C 51.769531 90.515625 53.285156 89.507812 54.511719 87.652344 C 55.242188 86.539062 59.074219 80.980469 62.769531 80.675781 C 63.476562 80.617188 64.128906 80.753906 64.71875 81.078125 C 65.878906 79.433594 67.894531 77.710938 70.332031 78.613281 C 72.414062 79.390625 73.535156 81.136719 74.109375 82.425781 C 75.214844 81.644531 76.894531 80.84375 78.347656 81.789062 C 80.628906 83.269531 81.914062 89.523438 78.285156 96.953125 C 80.125 99.347656 81.742188 102.589844 82.289062 106.863281 C 82.792969 110.828125 82.082031 113.820312 80.15625 115.761719 C 78.417969 117.511719 76.144531 117.917969 74.761719 117.988281 L 75.222656 122.070312 C 75.34375 123.140625 76.257812 123.90625 77.355469 123.835938 L 86.371094 123.171875 L 86.371094 66.914062 C 86.371094 63.050781 89.511719 59.910156 93.375 59.910156 L 158.792969 59.910156 C 158.816406 59.582031 158.859375 59.242188 158.929688 58.910156 C 159.339844 56.996094 160.898438 55.492188 162.898438 55.09375 C 164.867188 54.699219 167.710938 54.179688 170.070312 53.925781 C 174.402344 53.457031 178.355469 53.5 182.808594 58.761719 C 182.878906 58.839844 182.921875 58.9375 182.957031 59.03125 L 192.914062 59.03125 C 192.949219 58.972656 192.964844 58.902344 193.019531 58.851562 C 193.671875 58.074219 208.8125 40.320312 223.710938 36.378906 C 219.027344 31.445312 218.339844 23.269531 218.253906 21.816406 C 217.6875 20.597656 214.800781 13.855469 217.4375 9.578125 C 220.367188 4.808594 235.101562 0.292969 240.96875 2.363281 C 243.578125 3.285156 245.578125 7.105469 247.015625 11.246094 C 247.066406 11.34375 247.101562 11.445312 247.121094 11.550781 C 248.789062 16.449219 249.679688 21.6875 249.90625 23.070312 C 250.460938 23.914062 250.671875 24.816406 250.488281 25.75 C 249.992188 28.273438 246.917969 30.386719 245.675781 31.152344 L 245.5625 33.054688 L 248.277344 34.980469 C 250.253906 35.074219 261.015625 35.789062 266.144531 40.113281 C 271.347656 44.496094 268.675781 52.707031 265.820312 58.421875 L 340.199219 58.421875 C 344.0625 58.421875 347.203125 61.5625 347.203125 65.425781 L 347.203125 255.542969 C 347.203125 256.09375 346.75 256.542969 346.203125 256.542969 L 336.640625 256.542969 C 337.824219 259.667969 338.605469 261.835938 338.761719 262.453125 C 339.269531 264.402344 339.03125 266.105469 338.109375 267.367188 C 337.945312 267.59375 337.753906 267.785156 337.554688 267.976562 L 342.898438 267.976562 C 346.378906 267.96875 349.195312 270.792969 349.195312 274.265625 Z M 264.488281 267.96875 C 261.496094 266.097656 258.039062 262.566406 255.4375 259.640625 L 258.640625 267.96875 Z M 234.230469 251.414062 L 248.15625 251.414062 L 242.28125 245.183594 L 230.003906 245.183594 C 231.761719 247.722656 233.214844 249.890625 234.230469 251.414062 Z M 253.082031 253.726562 C 253.089844 253.734375 253.097656 253.753906 253.105469 253.769531 C 253.117188 253.777344 253.132812 253.789062 253.140625 253.796875 C 255.953125 257.378906 264.070312 266.800781 267.832031 267.269531 C 272.660156 267.871094 308.6875 268.046875 312.144531 267.644531 C 312.578125 267.59375 313.066406 267.175781 313.527344 266.472656 C 315.171875 263.949219 316.121094 258.214844 314.917969 254.335938 C 313.464844 249.636719 303.910156 226.921875 302.195312 222.871094 L 279.464844 223.496094 L 273.488281 236.734375 C 273.367188 237.015625 273.113281 237.222656 272.816406 237.292969 C 272.738281 237.308594 272.660156 237.320312 272.574219 237.320312 C 272.355469 237.320312 272.136719 237.25 271.957031 237.109375 L 248.574219 218.953125 C 246.171875 219.851562 244.066406 220.441406 242.585938 220.519531 C 242.480469 220.527344 242.386719 220.527344 242.289062 220.527344 C 238.0625 220.527344 234.667969 216.265625 232.125 211.777344 C 230.453125 211.515625 224.171875 210.871094 220.558594 215.257812 C 216.175781 220.589844 217.210938 227.488281 223.710938 236.363281 C 225.46875 238.753906 227.113281 241.070312 228.601562 243.191406 L 240.382812 243.191406 L 231.027344 233.273438 C 230.644531 232.875 230.671875 232.238281 231.074219 231.855469 C 231.472656 231.480469 232.109375 231.5 232.492188 231.898438 L 243.351562 243.410156 C 243.429688 243.46875 243.5 243.539062 243.550781 243.625 Z M 208.246094 187.460938 L 195.28125 194.640625 L 204.503906 203.714844 L 228.199219 203.714844 C 228.035156 203.347656 227.878906 203.027344 227.738281 202.746094 L 227.480469 202.226562 C 225.53125 198.328125 223.109375 193.484375 220.230469 190.898438 C 218.835938 189.65625 218.019531 187.921875 217.53125 186.269531 C 216.191406 186.253906 215.042969 185.617188 214.269531 184.445312 C 213.007812 182.539062 212.902344 179.285156 214.042969 177.335938 C 214.589844 176.40625 215.765625 175.316406 217.078125 174.28125 L 209.875 171.039062 C 209.753906 170.984375 209.648438 170.90625 209.550781 170.8125 L 206.871094 167.941406 C 206.59375 167.644531 206.523438 167.210938 206.6875 166.84375 C 206.785156 166.644531 206.941406 166.488281 207.132812 166.390625 C 207.105469 166.304688 207.082031 166.21875 207.082031 166.121094 L 207.082031 156.378906 L 179.964844 140.179688 L 154.1875 155.875 L 154.1875 185.183594 L 180.164062 200.730469 L 207.28125 185.707031 C 207.769531 185.4375 208.378906 185.609375 208.636719 186.097656 C 208.898438 186.582031 208.734375 187.191406 208.246094 187.460938 Z M 105.648438 217.484375 L 149.140625 217.484375 L 166.085938 194.632812 L 152.675781 186.609375 C 152.371094 186.425781 152.1875 186.105469 152.1875 185.75 L 152.1875 180.929688 L 123.070312 180.929688 C 122.824219 180.929688 122.597656 180.84375 122.417969 180.6875 L 115.523438 174.699219 L 112.703125 177.40625 C 113.128906 178.03125 113.339844 178.710938 113.175781 179.363281 C 112.886719 180.511719 111.730469 181.085938 109.746094 181.09375 C 111.304688 183.871094 111.980469 186.53125 111.589844 188.148438 C 111.355469 189.117188 110.765625 189.777344 109.910156 190.003906 C 109.050781 190.238281 108.207031 190.125 107.472656 189.691406 C 107.300781 189.585938 107.136719 189.464844 106.976562 189.332031 C 106.777344 189.644531 106.5 189.914062 106.125 190.117188 C 105.445312 190.472656 104.757812 190.515625 104.132812 190.410156 C 104.0625 191.421875 103.652344 192.402344 102.523438 192.742188 C 101.894531 192.933594 101.3125 192.933594 100.816406 192.839844 C 100.78125 192.933594 100.730469 193.023438 100.679688 193.117188 C 100.652344 193.160156 100.617188 193.1875 100.589844 193.222656 C 101.128906 195.683594 103.28125 205.3125 105.648438 217.484375 Z M 98.816406 192.175781 C 98.859375 192.132812 98.902344 192.097656 98.953125 192.066406 C 99.007812 191.960938 98.953125 191.726562 98.9375 191.683594 C 98.746094 191.238281 98.894531 190.726562 99.292969 190.457031 C 99.695312 190.183594 100.226562 190.238281 100.566406 190.578125 C 100.609375 190.621094 101.128906 191.074219 101.941406 190.828125 C 102.191406 190.75 102.199219 189.804688 102.019531 189.117188 C 101.90625 188.699219 102.070312 188.261719 102.425781 188.019531 C 102.785156 187.785156 103.253906 187.792969 103.59375 188.054688 C 103.59375 188.054688 104.480469 188.707031 105.203125 188.332031 C 105.5 188.175781 105.5 187.253906 105.316406 186.496094 C 105.28125 186.382812 105.265625 186.304688 105.253906 186.261719 C 105.132812 185.730469 105.445312 185.210938 105.96875 185.0625 C 106.492188 184.921875 107.03125 185.21875 107.1875 185.738281 C 107.195312 185.773438 107.222656 185.851562 107.25 185.949219 C 107.40625 186.472656 107.839844 187.558594 108.519531 187.957031 C 108.78125 188.113281 109.066406 188.140625 109.40625 188.054688 C 109.457031 188.035156 109.570312 188.011719 109.660156 187.664062 C 110.109375 185.773438 108.015625 180.546875 103.6875 176.65625 C 103.28125 176.292969 103.246094 175.65625 103.621094 175.25 C 103.984375 174.839844 104.621094 174.804688 105.027344 175.179688 C 106.34375 176.363281 107.484375 177.667969 108.429688 179 C 110.78125 179.257812 111.269531 178.816406 111.277344 178.808594 C 111.242188 178.605469 110.503906 177.640625 109.117188 177.101562 C 107.605469 176.511719 106.464844 175.257812 105.246094 173.925781 C 103.921875 172.480469 102.558594 170.984375 100.6875 170.386719 C 97.378906 169.316406 93.898438 171.941406 93.863281 171.96875 C 93.664062 172.117188 93.410156 172.195312 93.167969 172.167969 C 92.53125 172.117188 83.011719 171.308594 75.285156 170.542969 C 74.273438 172.550781 70.636719 180.746094 76.136719 185.460938 C 76.15625 185.480469 76.164062 185.496094 76.171875 185.503906 C 83.054688 184.085938 88.539062 182.695312 88.632812 182.667969 C 89.042969 182.566406 89.46875 182.730469 89.703125 183.070312 C 93.105469 187.992188 97.023438 192.308594 98.101562 192.308594 C 98.476562 192.316406 98.695312 192.246094 98.816406 192.175781 Z M 62.386719 150.871094 C 63.355469 157.988281 64.71875 165.027344 65.789062 167.035156 L 144.597656 93.117188 L 138.707031 87.496094 C 136.738281 85.617188 133.625 85.59375 131.625 87.429688 Z M 67.921875 167.777344 C 73.136719 168.429688 86.867188 169.65625 92.957031 170.167969 C 94.046875 169.429688 97.605469 167.316406 101.285156 168.496094 C 103.664062 169.261719 105.28125 171.039062 106.707031 172.59375 C 107.761719 173.742188 108.753906 174.832031 109.832031 175.257812 C 110.335938 175.457031 110.824219 175.71875 111.269531 176.023438 L 136.355469 151.933594 C 136.355469 151.933594 136.355469 151.933594 136.355469 151.925781 L 142.449219 146.167969 C 142.605469 145.941406 143.40625 144.566406 142.371094 142.25 C 141.96875 141.363281 141.492188 140.527344 141.03125 139.710938 C 139.890625 137.710938 138.59375 135.449219 140.605469 134.238281 C 141.492188 133.707031 142.507812 133.628906 143.46875 134.023438 C 143.5625 134.058594 143.660156 134.109375 143.746094 134.160156 C 143.789062 132.578125 144.398438 130.96875 146.207031 129.976562 C 148 128.992188 149.621094 128.75 151.027344 129.246094 C 151.109375 128.089844 151.585938 126.949219 152.910156 126.566406 C 153.777344 126.3125 154.789062 126.480469 155.738281 127.035156 C 156.929688 127.722656 157.949219 128.941406 158.625 130.421875 L 166.789062 121.179688 C 168.644531 119.085938 168.503906 115.925781 166.484375 113.996094 L 146.027344 94.484375 C 146 94.507812 145.992188 94.542969 145.964844 94.570312 Z M 143.972656 147.460938 C 143.945312 147.496094 143.917969 147.523438 143.882812 147.558594 L 139.566406 151.648438 C 147.226562 151.089844 152.839844 145.714844 155.988281 142.703125 C 159.148438 139.683594 158.3125 136.527344 157.511719 133.472656 C 157.433594 133.179688 157.363281 132.890625 157.285156 132.613281 C 156.78125 130.585938 155.632812 129.308594 154.738281 128.785156 C 154.257812 128.507812 153.804688 128.410156 153.457031 128.507812 C 152.847656 128.679688 153.023438 130.183594 153.152344 130.707031 C 153.160156 130.726562 153.152344 130.75 153.152344 130.769531 C 153.726562 131.457031 154.222656 132.351562 154.613281 133.4375 C 155.867188 136.867188 156.539062 139.675781 156.5625 139.789062 C 156.695312 140.328125 156.355469 140.867188 155.816406 140.988281 C 155.738281 141.007812 155.660156 141.015625 155.589844 141.015625 C 155.136719 141.015625 154.726562 140.703125 154.613281 140.242188 C 154.605469 140.214844 153.945312 137.421875 152.734375 134.117188 C 152.144531 132.507812 151.367188 131.507812 150.429688 131.160156 C 149.898438 130.960938 149.269531 130.984375 148.574219 131.167969 C 149.609375 132.203125 150.960938 133.953125 151.542969 136.414062 C 152.464844 140.285156 152.734375 142.21875 152.742188 142.296875 C 152.820312 142.84375 152.4375 143.347656 151.890625 143.417969 C 151.847656 143.425781 151.804688 143.425781 151.75 143.425781 C 151.253906 143.425781 150.828125 143.0625 150.757812 142.566406 C 150.757812 142.546875 150.488281 140.640625 149.59375 136.882812 C 149.011719 134.429688 147.453125 132.820312 146.644531 132.117188 C 145.015625 133.542969 145.992188 136.195312 146.277344 136.867188 C 147.234375 138.484375 148.078125 140.730469 148.808594 143.601562 C 148.949219 144.140625 148.628906 144.679688 148.085938 144.816406 C 147.546875 144.957031 147.007812 144.625 146.871094 144.097656 C 146.113281 141.128906 145.328125 139.222656 144.625 138.007812 C 144.597656 137.972656 144.5625 137.945312 144.546875 137.902344 C 144.527344 137.859375 144.511719 137.816406 144.484375 137.769531 C 143.703125 136.484375 143.050781 136.039062 142.683594 135.890625 C 142.308594 135.734375 141.953125 135.761719 141.613281 135.96875 C 141.550781 136.003906 141.542969 136.023438 141.542969 136.023438 C 141.40625 136.378906 142.25 137.851562 142.746094 138.726562 C 143.207031 139.539062 143.738281 140.460938 144.171875 141.441406 C 145.84375 145.113281 144.050781 147.375 143.972656 147.460938 Z M 247.363281 161.390625 L 247.363281 137.015625 L 228.480469 137.015625 L 209.097656 156.222656 L 209.097656 166.121094 C 209.097656 166.191406 209.074219 166.253906 209.066406 166.3125 L 211.398438 166.390625 C 211.476562 166.390625 211.542969 166.410156 211.613281 166.425781 L 219.5 168.496094 C 221.988281 166.0625 225.832031 166.4375 228.367188 168.125 C 230.253906 169.375 232.160156 171.019531 232.898438 173.753906 C 232.910156 173.753906 232.925781 173.753906 232.933594 173.761719 L 241.097656 176.875 C 241.914062 177.1875 242.558594 177.804688 242.917969 178.605469 C 243.273438 179.40625 243.28125 180.292969 242.960938 181.113281 C 242.636719 181.929688 242.011719 182.566406 241.203125 182.902344 C 240.792969 183.078125 240.367188 183.164062 239.941406 183.164062 C 239.523438 183.164062 239.097656 183.078125 238.695312 182.914062 L 233.421875 180.730469 C 233.640625 183.070312 233.96875 185.261719 234.082031 185.992188 L 246.398438 200.929688 C 252.574219 196.179688 264.601562 187.132812 269.265625 184.894531 C 274.15625 182.546875 280.128906 181.773438 282.773438 181.53125 L 280.476562 175.386719 C 278.449219 175.667969 276.65625 175.292969 275.148438 174.273438 C 272.632812 172.585938 271.703125 169.613281 271.433594 168.496094 C 271.042969 168.203125 270.617188 167.800781 270.25 167.367188 C 270.121094 167.429688 269.980469 167.460938 269.832031 167.460938 L 253.324219 167.460938 C 250.035156 167.460938 247.363281 164.738281 247.363281 161.390625 Z M 319.539062 202.921875 C 319.835938 202.632812 320.269531 202.554688 320.644531 202.722656 C 320.777344 202.78125 324.046875 204.140625 326.257812 201.824219 C 328.589844 199.390625 326.605469 195.117188 323.960938 191.925781 C 320.914062 188.246094 314.160156 177.085938 312.753906 166.089844 C 311.367188 155.273438 308.75 149.566406 298.847656 150.367188 C 298.488281 150.386719 298.140625 150.230469 297.941406 149.933594 C 297.820312 149.757812 294.859375 145.566406 288.027344 145.503906 C 288.003906 145.503906 287.976562 145.503906 287.949219 145.503906 C 282.164062 145.503906 276.871094 150.785156 275.304688 152.507812 C 277.386719 155.761719 282.101562 162.476562 284.914062 163.9375 C 285.792969 163.503906 287.679688 162.738281 289.125 163.320312 C 289.65625 163.539062 290.351562 164.019531 290.65625 165.113281 C 290.902344 165.992188 290.796875 166.84375 290.335938 167.566406 C 289.648438 168.664062 288.332031 169.253906 287.445312 169.542969 L 287.925781 174.359375 C 289.03125 174.28125 290.710938 174.230469 291.847656 174.507812 C 291.902344 173.359375 291.996094 172.5 292.023438 172.246094 C 292.058594 171.976562 292.199219 171.726562 292.421875 171.558594 C 292.640625 171.394531 292.929688 171.324219 293.1875 171.378906 C 293.3125 171.394531 296.289062 171.820312 298.382812 168.089844 C 298.59375 167.714844 299.019531 167.515625 299.445312 167.59375 C 299.871094 167.671875 300.195312 168.019531 300.246094 168.445312 C 300.324219 169.046875 302.125 183.191406 300.34375 189.4375 C 299.59375 192.039062 298.871094 193.414062 298.289062 194.507812 C 297.523438 195.953125 297.0625 196.816406 297.132812 199.867188 C 297.191406 202.722656 298.679688 205.375 300.734375 206.3125 C 302.421875 207.089844 304.320312 206.671875 306.226562 205.105469 C 306.40625 204.957031 306.632812 204.878906 306.859375 204.878906 C 306.957031 204.878906 307.042969 204.894531 307.140625 204.914062 C 307.453125 205.007812 307.703125 205.246094 307.808594 205.558594 C 307.894531 205.808594 309.976562 211.714844 315.554688 210.027344 C 317.417969 209.464844 318.652344 208.574219 319.21875 207.375 C 319.984375 205.757812 319.296875 204.027344 319.289062 204.007812 C 319.164062 203.644531 319.253906 203.207031 319.539062 202.921875 Z M 303.882812 221.722656 C 305.09375 224.59375 315.277344 248.722656 316.832031 253.742188 C 316.832031 253.761719 316.84375 253.769531 316.84375 253.789062 L 319.941406 253.789062 L 304.292969 218.851562 Z M 317.398438 259.71875 L 321.714844 257.753906 L 320.835938 255.789062 L 317.269531 255.789062 C 317.441406 257.03125 317.484375 258.371094 317.398438 259.71875 Z M 321.011719 251.273438 C 321.191406 251.332031 328.257812 253.734375 331.765625 249.421875 C 327.371094 238.066406 321.097656 222.148438 316.957031 211.683594 C 316.703125 211.777344 316.441406 211.875 316.164062 211.953125 C 315.257812 212.230469 314.414062 212.351562 313.621094 212.351562 C 309.949219 212.351562 307.582031 209.679688 306.453125 207.4375 C 306.261719 207.558594 306.070312 207.664062 305.878906 207.765625 C 305.878906 207.765625 305.878906 207.777344 305.878906 207.777344 L 304.808594 215.214844 C 304.839844 215.265625 304.894531 215.308594 304.921875 215.378906 Z M 292.242188 179.910156 C 291.996094 178.859375 291.882812 177.703125 291.847656 176.597656 C 291.769531 176.578125 291.691406 176.554688 291.613281 176.519531 C 291.003906 176.230469 288.820312 176.257812 287.160156 176.441406 C 286.898438 176.464844 286.628906 176.386719 286.417969 176.222656 C 286.210938 176.058594 286.078125 175.8125 286.054688 175.542969 L 285.390625 168.890625 C 285.339844 168.367188 285.695312 167.898438 286.210938 167.800781 C 286.6875 167.714844 288.1875 167.269531 288.664062 166.496094 C 288.820312 166.246094 288.847656 165.984375 288.75 165.644531 C 288.648438 165.269531 288.472656 165.199219 288.394531 165.164062 C 287.734375 164.894531 286.261719 165.445312 285.46875 165.90625 C 285.21875 166.054688 284.90625 166.078125 284.625 165.984375 C 281.980469 165.027344 278.324219 160.390625 275.855469 156.894531 C 275.167969 157.988281 274.253906 159.851562 274.253906 162.09375 C 274.253906 162.128906 274.253906 162.171875 274.246094 162.207031 C 274.089844 163.554688 272.375 164.828125 271.292969 165.417969 C 271.597656 165.914062 272.234375 166.671875 272.835938 167.027344 C 273.085938 167.175781 273.261719 167.429688 273.304688 167.714844 C 273.304688 167.722656 273.417969 168.296875 273.695312 169.070312 C 273.90625 169.203125 274.132812 169.324219 274.359375 169.410156 C 274.714844 169.558594 275.078125 169.644531 275.453125 169.664062 C 276.203125 169.722656 276.960938 169.480469 277.699219 169.105469 L 277.71875 169.097656 C 277.863281 169.019531 278.046875 169.082031 278.125 169.230469 C 278.195312 169.359375 278.152344 169.515625 278.046875 169.601562 C 277.691406 169.890625 277.300781 170.160156 276.847656 170.324219 C 276.402344 170.515625 275.90625 170.566406 275.410156 170.566406 C 275.011719 170.550781 274.628906 170.457031 274.261719 170.308594 C 274.714844 171.140625 275.359375 172.003906 276.273438 172.613281 C 277.515625 173.449219 279.074219 173.664062 280.902344 173.273438 C 281.390625 173.167969 281.875 173.429688 282.050781 173.898438 L 284.679688 180.921875 C 286.027344 180.242188 288.601562 179.355469 292.242188 179.910156 Z M 294.914062 181.136719 C 296.253906 182.644531 298.304688 183.113281 299.125 183.253906 C 299.246094 179.007812 298.855469 174.109375 298.566406 171.210938 C 296.886719 172.917969 295.070312 173.316406 293.945312 173.386719 C 293.71875 176.058594 293.808594 179.902344 294.914062 181.136719 Z M 332.652344 164.714844 C 333.691406 164.714844 334.671875 164.304688 335.414062 163.554688 C 336.1875 162.78125 336.613281 161.738281 336.605469 160.632812 L 336.394531 95.667969 C 336.386719 93.429688 334.613281 91.613281 332.445312 91.613281 L 253.316406 91.613281 C 251.140625 91.613281 249.363281 93.4375 249.363281 95.675781 L 249.363281 161.390625 C 249.363281 163.636719 251.140625 165.453125 253.316406 165.453125 L 269.179688 165.453125 C 269.136719 165.269531 269.117188 165.085938 269.136719 164.914062 C 269.199219 164.390625 269.519531 163.984375 270.015625 163.816406 C 270.683594 163.589844 272.121094 162.46875 272.261719 161.992188 C 272.285156 158.738281 273.816406 156.222656 274.644531 155.109375 C 273.914062 154.023438 273.402344 153.203125 273.226562 152.925781 C 273 152.558594 273.027344 152.097656 273.296875 151.769531 C 273.574219 151.429688 280.128906 143.496094 287.960938 143.496094 C 287.996094 143.496094 288.019531 143.496094 288.054688 143.496094 C 294.632812 143.546875 298.160156 147.027344 299.246094 148.324219 C 310.882812 147.628906 313.371094 155.859375 314.597656 164.703125 L 332.652344 164.703125 Z M 233.414062 188.324219 L 232.371094 187.054688 C 232.257812 186.914062 232.1875 186.757812 232.152344 186.585938 C 232.109375 186.332031 231.140625 180.460938 231.21875 176.5 C 231.289062 173.167969 229.6875 171.402344 227.253906 169.785156 C 225.292969 168.480469 222.292969 168.203125 220.59375 170.253906 C 220.527344 170.332031 220.472656 170.410156 220.429688 170.472656 C 220.953125 170.542969 221.839844 170.5 222.273438 170.472656 C 222.578125 170.457031 222.859375 170.445312 223.074219 170.445312 C 223.152344 170.445312 223.230469 170.472656 223.308594 170.480469 C 223.308594 170.480469 223.320312 170.480469 223.320312 170.480469 C 225.007812 170.65625 226.835938 172.457031 227.199219 172.839844 C 227.582031 173.238281 227.566406 173.875 227.175781 174.25 C 226.773438 174.632812 226.148438 174.621094 225.753906 174.222656 C 225.113281 173.550781 223.972656 172.664062 223.285156 172.492188 C 222.8125 172.777344 222.195312 173.160156 221.515625 173.605469 L 225.128906 174.832031 C 225.652344 175.003906 225.929688 175.578125 225.753906 176.101562 C 225.617188 176.519531 225.226562 176.78125 224.808594 176.78125 C 224.703125 176.78125 224.589844 176.761719 224.484375 176.726562 L 219.578125 175.066406 C 219.542969 175.058594 219.515625 175.023438 219.472656 175.003906 C 219.175781 175.222656 218.878906 175.441406 218.59375 175.65625 L 222.78125 176.988281 C 223.308594 177.152344 223.597656 177.71875 223.433594 178.242188 C 223.292969 178.667969 222.902344 178.9375 222.476562 178.9375 C 222.371094 178.9375 222.273438 178.917969 222.171875 178.894531 L 216.773438 177.179688 C 216.324219 177.605469 215.964844 178.015625 215.765625 178.363281 C 215.070312 179.554688 214.992188 181.9375 215.929688 183.355469 C 216.234375 183.808594 216.609375 184.078125 217.054688 184.199219 C 216.808594 182.679688 216.808594 181.53125 216.808594 181.417969 C 216.816406 180.867188 217.296875 180.441406 217.820312 180.433594 C 218.367188 180.441406 218.8125 180.894531 218.8125 181.441406 C 218.8125 181.496094 218.777344 186.933594 221.550781 189.421875 C 222.710938 190.457031 223.78125 191.796875 224.773438 193.265625 C 226.007812 191.707031 228.964844 188.621094 233.414062 188.324219 Z M 218.925781 172.941406 C 219.210938 172.742188 219.480469 172.550781 219.75 172.367188 C 219.160156 172.222656 218.671875 171.953125 218.410156 171.429688 C 218.210938 171.03125 218.21875 170.621094 218.316406 170.253906 L 211.207031 168.382812 L 209.988281 168.339844 L 210.882812 169.296875 L 218.871094 172.898438 C 218.898438 172.917969 218.914062 172.933594 218.925781 172.941406 Z M 233.257812 178.492188 L 239.460938 181.070312 C 239.773438 181.199219 240.113281 181.199219 240.425781 181.070312 C 240.742188 180.9375 240.976562 180.695312 241.105469 180.382812 C 241.226562 180.066406 241.21875 179.730469 241.089844 179.414062 C 240.949219 179.109375 240.707031 178.875 240.394531 178.753906 L 233.222656 176.015625 C 233.230469 176.1875 233.230469 176.363281 233.230469 176.554688 C 233.214844 177.152344 233.222656 177.816406 233.257812 178.492188 Z M 230.59375 204.128906 C 232.707031 208.820312 237.078125 218.519531 242.289062 218.527344 C 242.359375 218.527344 242.421875 218.527344 242.488281 218.527344 C 249.15625 218.207031 270.851562 205.644531 271.066406 205.523438 C 271.546875 205.246094 272.15625 205.410156 272.433594 205.886719 C 272.714844 206.367188 272.546875 206.976562 272.070312 207.253906 C 271.9375 207.332031 271.371094 207.652344 270.503906 208.148438 L 279.335938 221.503906 L 301.980469 220.878906 L 303.746094 208.558594 C 302.441406 208.828125 301.144531 208.699219 299.925781 208.140625 C 297.15625 206.871094 295.234375 203.566406 295.15625 199.921875 C 295.078125 196.34375 295.695312 195.1875 296.539062 193.578125 C 297.078125 192.558594 297.75 191.300781 298.4375 188.898438 C 298.722656 187.898438 298.90625 186.652344 299.019531 185.269531 C 298.097656 185.140625 295.296875 184.601562 293.414062 182.476562 C 293.320312 182.375 293.242188 182.25 293.164062 182.128906 C 287.96875 180.886719 285.105469 182.972656 284.886719 183.140625 C 284.714844 183.3125 284.476562 183.417969 284.226562 183.433594 C 284.148438 183.433594 276.117188 183.835938 270.136719 186.707031 C 264.0625 189.621094 244.066406 205.269531 243.863281 205.425781 C 243.683594 205.574219 243.464844 205.644531 243.246094 205.644531 C 242.953125 205.644531 242.65625 205.515625 242.457031 205.261719 C 242.117188 204.828125 242.195312 204.199219 242.628906 203.851562 C 242.785156 203.730469 243.578125 203.105469 244.8125 202.15625 L 235.058594 190.324219 C 235.015625 190.324219 234.980469 190.34375 234.925781 190.332031 C 229.714844 189.8125 226.433594 194.34375 225.945312 195.074219 C 227.191406 197.152344 228.296875 199.363281 229.28125 201.339844 L 229.539062 201.851562 C 229.828125 202.441406 230.183594 203.226562 230.59375 204.128906 Z M 250.738281 218.109375 L 272.183594 234.753906 L 277.671875 222.609375 L 268.761719 209.125 C 264.515625 211.492188 256.988281 215.527344 250.738281 218.109375 Z M 336.832031 262.9375 C 336.613281 262.070312 334.941406 257.640625 332.585938 251.515625 C 330.539062 253.472656 327.910156 254.023438 325.613281 254.023438 C 324.257812 254.023438 323.011719 253.832031 322.070312 253.628906 L 325.570312 261.453125 C 325.796875 261.957031 325.570312 262.546875 325.066406 262.773438 C 324.933594 262.835938 324.796875 262.859375 324.65625 262.859375 C 324.273438 262.859375 323.910156 262.644531 323.742188 262.269531 L 322.542969 259.589844 L 317.136719 262.042969 C 317.015625 262.757812 316.859375 263.453125 316.675781 264.113281 C 317.980469 263.453125 319.738281 262.773438 321.488281 262.773438 C 322.039062 262.773438 322.488281 263.226562 322.488281 263.773438 C 322.488281 264.320312 322.039062 264.773438 321.488281 264.773438 C 318.773438 264.773438 315.796875 266.964844 315.761719 266.984375 C 315.667969 267.054688 315.5625 267.105469 315.449219 267.140625 C 315.421875 267.191406 315.390625 267.238281 315.363281 267.289062 C 319.566406 267.339844 331.226562 267.488281 333.828125 267.347656 C 334.683594 267.304688 335.839844 267.070312 336.492188 266.175781 C 337.066406 265.410156 337.179688 264.289062 336.832031 262.9375 Z M 248.164062 24.035156 C 247.503906 23.332031 246.789062 22.992188 246.074219 23.0625 C 244.613281 23.199219 243.222656 24.941406 242.8125 25.601562 C 242.59375 25.949219 242.195312 26.132812 241.785156 26.054688 C 241.386719 25.984375 241.0625 25.671875 240.984375 25.269531 C 240.976562 25.226562 240.078125 20.886719 237.957031 18.546875 C 237.878906 18.457031 237.824219 18.363281 237.789062 18.257812 C 230.714844 21.285156 223.066406 22.234375 220.335938 22.488281 C 220.605469 25.148438 221.789062 32.671875 226.53125 36.207031 C 229.113281 38.128906 232.429688 38.589844 236.398438 37.570312 C 236.765625 37.476562 237.148438 37.597656 237.398438 37.875 C 237.652344 38.164062 237.722656 38.554688 237.582031 38.902344 C 237.582031 38.902344 237.226562 39.902344 237.652344 40.46875 C 238.027344 40.964844 239.027344 41.164062 240.472656 41.035156 C 244.214844 40.695312 246.066406 37.683594 246.726562 36.308594 L 243.976562 34.359375 C 243.699219 34.160156 243.535156 33.832031 243.558594 33.492188 L 243.726562 30.5 C 243.742188 30.160156 243.941406 29.847656 244.238281 29.679688 C 245.316406 29.082031 248.199219 27.132812 248.546875 25.355469 C 248.617188 24.878906 248.503906 24.460938 248.164062 24.035156 Z M 245.640625 13.542969 C 243.847656 15.082031 241.777344 16.351562 239.609375 17.421875 C 241.011719 19.078125 241.914062 21.328125 242.421875 22.929688 C 243.265625 22.085938 244.464844 21.207031 245.875 21.070312 C 246.457031 21.007812 247.015625 21.085938 247.5625 21.269531 C 247.09375 18.839844 246.441406 16.101562 245.640625 13.542969 Z M 219.140625 10.628906 C 218.941406 10.960938 218.785156 11.316406 218.664062 11.699219 C 220.265625 11.699219 227.558594 11.5 235.015625 7.90625 C 235.511719 7.664062 236.109375 7.878906 236.355469 8.375 C 236.597656 8.871094 236.390625 9.472656 235.886719 9.714844 C 228.167969 13.429688 220.785156 13.707031 218.777344 13.707031 C 218.585938 13.707031 218.445312 13.707031 218.359375 13.699219 C 218.296875 16.1875 219.203125 18.953125 219.863281 20.519531 C 223.136719 20.214844 237.382812 18.519531 244.953125 11.472656 C 243.640625 7.820312 242.039062 4.863281 240.296875 4.253906 C 239.460938 3.957031 238.425781 3.824219 237.25 3.824219 C 231.003906 3.824219 221.023438 7.585938 219.140625 10.628906 Z M 195.523438 59.042969 L 220.386719 59.042969 L 217.425781 53.125 C 217.183594 52.628906 217.382812 52.03125 217.871094 51.785156 C 218.367188 51.535156 218.96875 51.742188 219.210938 52.230469 L 222.613281 59.042969 L 241.359375 59.042969 L 246.101562 51.882812 C 246.40625 51.421875 247.023438 51.300781 247.484375 51.601562 C 247.945312 51.90625 248.066406 52.527344 247.761719 52.988281 L 230.367188 79.269531 C 232.5 79.390625 233.839844 79.460938 233.839844 79.460938 L 233.726562 81.460938 C 233.726562 81.460938 231.761719 81.347656 228.785156 81.179688 C 228.707031 81.199219 228.628906 81.207031 228.539062 81.207031 C 228.425781 81.207031 228.324219 81.179688 228.21875 81.148438 C 227.984375 81.136719 227.75 81.121094 227.511719 81.101562 C 229.261719 83.46875 231.96875 88.253906 230.324219 93.613281 C 234.457031 94.066406 238.207031 94.023438 240.949219 92.109375 C 244.96875 89.296875 254.230469 73.96875 259.207031 65.738281 C 260.226562 64.050781 261.113281 62.582031 261.808594 61.46875 C 263.949219 58.015625 270.476562 46.390625 264.847656 41.632812 C 260.546875 38.007812 251.191406 37.171875 248.589844 36.996094 C 247.824219 38.640625 245.507812 42.582031 240.628906 43.027344 C 238.398438 43.226562 236.851562 42.773438 236.023438 41.660156 C 235.582031 41.070312 235.433594 40.40625 235.414062 39.824219 C 231.578125 40.511719 228.269531 39.886719 225.554688 37.960938 C 225.511719 37.980469 225.476562 38.007812 225.433594 38.015625 C 212.867188 40.652344 199.222656 54.945312 195.523438 59.042969 Z M 195.949219 90.253906 C 195.960938 89.898438 196.152344 89.578125 196.453125 89.402344 C 196.769531 89.230469 197.140625 89.230469 197.445312 89.402344 C 201.257812 91.601562 206.125 89.386719 206.175781 89.359375 C 206.402344 89.253906 206.664062 89.238281 206.898438 89.316406 C 206.96875 89.339844 214.214844 91.621094 221.515625 92.4375 C 223.023438 92.605469 224.546875 92.832031 226.015625 93.039062 C 226.792969 93.152344 227.558594 93.265625 228.324219 93.371094 C 230.515625 86.964844 224.945312 81.101562 224.816406 80.957031 C 216.496094 80.484375 204.871094 79.832031 201.3125 79.625 C 197.351562 79.398438 193.496094 78.554688 190.40625 77.875 C 188.945312 77.554688 187.675781 77.277344 186.65625 77.117188 C 184.359375 76.761719 182.46875 78.25 180.363281 82.105469 C 178.492188 85.523438 177.675781 88.75 178.09375 89.628906 C 178.128906 89.699219 178.128906 89.699219 178.179688 89.707031 C 179.144531 89.890625 179.144531 89.890625 179.765625 88.332031 C 179.921875 87.941406 180.09375 87.480469 180.320312 86.964844 C 181.863281 83.382812 184.609375 83.773438 184.722656 83.792969 C 185.210938 83.871094 185.570312 84.289062 185.570312 84.78125 C 185.570312 85.304688 185.535156 85.957031 185.5 86.679688 C 185.402344 88.609375 185.265625 91.253906 185.777344 92.882812 C 185.875 93.179688 186.03125 93.550781 186.300781 93.664062 C 186.402344 93.707031 186.515625 93.707031 186.640625 93.699219 C 186.613281 91.648438 186.59375 85.929688 187.136719 83.523438 C 187.257812 82.980469 187.789062 82.644531 188.328125 82.765625 C 188.867188 82.886719 189.207031 83.417969 189.085938 83.957031 C 188.578125 86.246094 188.621094 92.246094 188.640625 93.945312 C 188.945312 94.125 189.625 94.421875 190.84375 94.578125 C 190.84375 92.449219 190.902344 87.140625 191.632812 84.589844 C 191.78125 84.0625 192.339844 83.757812 192.871094 83.90625 C 193.402344 84.050781 193.707031 84.609375 193.558594 85.140625 C 192.894531 87.460938 192.835938 92.691406 192.84375 94.675781 C 195.820312 94.5625 195.941406 90.4375 195.949219 90.253906 Z M 167.710938 56.273438 C 167.703125 56.308594 167.703125 56.34375 167.683594 56.371094 C 166.625 58.738281 167.1875 61.738281 167.683594 63.476562 C 168.113281 62.765625 168.460938 61.914062 168.660156 61.191406 C 168.667969 60.5625 168.773438 58.292969 169.503906 57.09375 C 169.792969 56.621094 170.410156 56.476562 170.878906 56.761719 C 171.347656 57.050781 171.496094 57.667969 171.210938 58.136719 C 170.835938 58.746094 170.660156 60.371094 170.660156 61.339844 C 170.660156 62.40625 171.027344 64.738281 172.070312 64.738281 C 172.628906 64.738281 173.480469 61.609375 173.480469 57.753906 C 173.480469 57.207031 173.933594 56.753906 174.480469 56.753906 C 175.039062 56.753906 175.484375 57.195312 175.484375 57.753906 C 175.484375 58.121094 175.472656 58.5625 175.457031 59.042969 L 180.347656 59.042969 C 176.917969 55.542969 173.96875 55.527344 170.289062 55.925781 C 169.46875 56.015625 168.597656 56.136719 167.710938 56.273438 Z M 166.039062 64.90625 C 165.527344 63.382812 164.570312 59.84375 165.476562 56.648438 C 164.902344 56.753906 164.34375 56.859375 163.839844 56.953125 C 162.820312 59.9375 164.28125 63.800781 164.726562 64.835938 C 165.125 64.878906 165.5625 64.90625 166.039062 64.90625 Z M 160.914062 61.9375 C 161.140625 62.914062 161.59375 63.609375 162.308594 64.085938 C 161.8125 62.546875 161.289062 60.285156 161.550781 58.050781 C 161.21875 58.414062 160.984375 58.851562 160.878906 59.335938 C 160.707031 60.191406 160.714844 61.070312 160.914062 61.9375 Z M 88.371094 123.027344 L 89.792969 122.921875 C 89.835938 122.921875 89.871094 122.929688 89.90625 122.9375 L 98.675781 114.902344 L 97.058594 114.902344 C 96.507812 114.902344 96.058594 114.449219 96.058594 113.898438 C 96.058594 113.351562 96.507812 112.898438 97.058594 112.898438 L 100.859375 112.898438 L 104.671875 109.410156 L 97.058594 109.410156 C 96.507812 109.410156 96.058594 108.957031 96.058594 108.410156 C 96.058594 107.863281 96.507812 107.410156 97.058594 107.410156 L 106.847656 107.410156 C 106.855469 107.410156 106.855469 107.410156 106.863281 107.410156 L 110.40625 104.164062 L 97.195312 104.164062 C 96.648438 104.164062 96.195312 103.714844 96.195312 103.164062 C 96.195312 102.617188 96.648438 102.164062 97.195312 102.164062 L 112.589844 102.164062 L 117.492188 97.675781 L 96.953125 97.675781 C 96.40625 97.675781 95.953125 97.222656 95.953125 96.675781 C 95.953125 96.128906 96.40625 95.675781 96.953125 95.675781 L 119.578125 95.675781 C 119.605469 95.675781 119.632812 95.691406 119.65625 95.691406 L 123.207031 92.4375 L 96.824219 92.4375 C 96.273438 92.4375 95.820312 91.984375 95.820312 91.4375 C 95.820312 90.890625 96.273438 90.4375 96.824219 90.4375 L 125.191406 90.4375 C 125.253906 90.4375 125.296875 90.464844 125.347656 90.472656 L 130.273438 85.957031 C 133.050781 83.417969 137.367188 83.453125 140.089844 86.054688 L 145.078125 90.8125 L 169.738281 90.8125 C 170.289062 90.8125 170.738281 91.265625 170.738281 91.8125 C 170.738281 92.359375 170.289062 92.8125 169.738281 92.8125 L 147.175781 92.8125 L 150.210938 95.710938 C 150.273438 95.699219 150.332031 95.675781 150.394531 95.675781 L 168.992188 95.675781 C 169.539062 95.675781 169.992188 96.128906 169.992188 96.675781 C 169.992188 97.222656 169.539062 97.675781 168.992188 97.675781 L 152.273438 97.675781 L 156.84375 102.035156 L 169.609375 102.035156 C 170.15625 102.035156 170.609375 102.488281 170.609375 103.035156 C 170.609375 103.582031 170.15625 104.035156 169.609375 104.035156 L 158.941406 104.035156 L 162.464844 107.402344 L 169.113281 107.402344 C 169.660156 107.402344 170.113281 107.855469 170.113281 108.402344 C 170.113281 108.949219 169.660156 109.402344 169.113281 109.402344 L 164.5625 109.402344 L 167.859375 112.550781 C 170.660156 115.230469 170.851562 119.597656 168.285156 122.503906 L 159.347656 132.613281 C 159.375 132.726562 159.410156 132.832031 159.4375 132.953125 C 160.296875 136.222656 161.367188 140.304688 157.355469 144.140625 C 154.066406 147.289062 147.382812 153.683594 138.226562 153.683594 C 137.957031 153.683594 137.6875 153.664062 137.417969 153.65625 L 116.960938 173.308594 L 123.425781 178.929688 L 152.167969 178.929688 L 152.167969 155.308594 C 152.167969 154.960938 152.351562 154.640625 152.648438 154.457031 L 179.441406 138.152344 C 179.753906 137.960938 180.15625 137.960938 180.476562 138.152344 L 207.933594 154.550781 L 227.347656 135.300781 C 227.53125 135.117188 227.792969 135.015625 228.054688 135.015625 L 247.355469 135.015625 L 247.355469 95.667969 C 247.355469 92.316406 250.027344 89.601562 253.308594 89.601562 L 332.4375 89.601562 C 335.707031 89.601562 338.378906 92.316406 338.390625 95.648438 L 338.597656 160.617188 C 338.605469 162.261719 337.972656 163.808594 336.824219 164.957031 C 335.699219 166.078125 334.21875 166.695312 332.644531 166.695312 L 314.875 166.695312 C 316.460938 176.972656 322.65625 187.191406 325.5 190.628906 C 328.6875 194.484375 330.941406 199.796875 327.703125 203.191406 C 325.710938 205.269531 323.210938 205.3125 321.578125 205.027344 C 321.664062 205.929688 321.59375 207.078125 321.054688 208.226562 C 320.574219 209.246094 319.800781 210.089844 318.746094 210.769531 C 320.53125 215.265625 330.757812 241.101562 335.875 254.519531 L 345.195312 254.519531 L 345.195312 65.417969 C 345.195312 62.660156 342.949219 60.414062 340.191406 60.414062 L 264.75 60.414062 C 264.304688 61.207031 263.890625 61.921875 263.515625 62.519531 C 262.828125 63.636719 261.941406 65.097656 260.929688 66.773438 C 253.621094 78.875 246.136719 90.933594 242.105469 93.753906 C 237.78125 96.78125 231.925781 95.925781 225.710938 95.023438 C 224.257812 94.8125 222.753906 94.585938 221.28125 94.429688 C 214.632812 93.691406 208.21875 91.820312 206.636719 91.34375 C 205.425781 91.828125 201.511719 93.167969 197.769531 91.777344 C 197.34375 93.953125 195.984375 96.625 192.792969 96.683594 C 192.660156 96.683594 192.53125 96.683594 192.410156 96.683594 C 189.660156 96.683594 188.171875 96.058594 187.4375 95.578125 C 186.945312 95.726562 186.246094 95.8125 185.535156 95.535156 C 184.976562 95.316406 184.238281 94.777344 183.835938 93.492188 C 183.226562 91.523438 183.367188 88.792969 183.472656 86.59375 C 183.480469 86.390625 183.488281 86.199219 183.496094 86.019531 C 183.070312 86.269531 182.558594 86.765625 182.132812 87.765625 C 181.914062 88.261719 181.75 88.699219 181.601562 89.082031 C 180.894531 90.882812 180.375 92.1875 177.78125 91.683594 C 177.101562 91.550781 176.5625 91.125 176.257812 90.488281 C 175.003906 87.828125 178.214844 81.824219 178.582031 81.148438 C 180.292969 78.023438 182.773438 74.507812 186.933594 75.152344 C 188.015625 75.316406 189.308594 75.605469 190.808594 75.925781 C 193.835938 76.589844 197.59375 77.414062 201.398438 77.632812 C 205.445312 77.867188 219.863281 78.675781 228.054688 79.136719 L 240.027344 61.042969 L 175.292969 61.042969 C 174.988281 63.773438 174.167969 66.742188 172.054688 66.742188 C 170.660156 66.742188 169.800781 65.835938 169.285156 64.679688 C 168.546875 65.851562 167.476562 66.90625 166.03125 66.90625 C 164.542969 66.90625 160 66.90625 158.949219 62.390625 C 158.914062 62.234375 158.886719 62.078125 158.859375 61.921875 L 93.375 61.921875 C 90.617188 61.921875 88.371094 64.164062 88.371094 66.921875 Z M 80.304688 107.125 C 79.707031 102.460938 77.703125 99.179688 75.660156 96.953125 C 75.554688 96.988281 75.441406 97.015625 75.335938 97.050781 C 75.023438 97.179688 74.738281 97.308594 74.484375 97.492188 C 73.980469 97.839844 73.613281 98.328125 73.179688 98.929688 L 73.152344 98.964844 C 73.023438 99.144531 72.761719 99.1875 72.578125 99.050781 C 72.457031 98.964844 72.394531 98.824219 72.414062 98.683594 C 72.457031 98.25 72.570312 97.804688 72.820312 97.414062 C 73.058594 97.015625 73.414062 96.675781 73.824219 96.441406 C 74.128906 96.257812 74.464844 96.152344 74.804688 96.082031 C 73.292969 94.640625 71.847656 93.761719 71.046875 93.335938 L 58.402344 107.410156 C 58.226562 107.601562 57.992188 107.714844 57.742188 107.742188 C 57.246094 107.785156 55.828125 108.0625 55.234375 108.828125 C 54.992188 109.140625 54.914062 109.515625 54.992188 109.992188 C 55.035156 110.273438 55.164062 110.464844 55.417969 110.636719 C 56.660156 111.492188 59.785156 111.054688 60.777344 110.839844 C 61.300781 110.726562 61.8125 111.039062 61.960938 111.550781 C 62.03125 111.820312 63.441406 117.050781 63.726562 121.851562 L 72.96875 119.988281 L 72.640625 117.085938 C 72.605469 116.78125 72.707031 116.476562 72.925781 116.257812 C 73.144531 116.039062 73.449219 115.9375 73.753906 115.96875 C 73.777344 115.96875 76.816406 116.292969 78.738281 114.335938 C 80.210938 112.863281 80.730469 110.4375 80.304688 107.125 Z M 60.925781 119.042969 L 61.550781 119.964844 C 61.214844 117.101562 60.585938 114.328125 60.253906 112.960938 C 58.757812 113.1875 55.929688 113.402344 54.292969 112.28125 C 53.589844 111.804688 53.15625 111.125 53.023438 110.308594 C 52.859375 109.28125 53.085938 108.332031 53.675781 107.585938 C 54.660156 106.332031 56.375 105.921875 57.183594 105.792969 L 70.082031 91.429688 C 70.367188 91.109375 70.820312 91.011719 71.210938 91.175781 C 71.421875 91.265625 74.136719 92.449219 76.851562 95.273438 C 79.75 88.734375 78.207031 84.070312 77.261719 83.453125 C 76.582031 83.007812 75.039062 84.113281 74.363281 84.808594 C 74.101562 85.070312 73.71875 85.175781 73.371094 85.070312 C 73.011719 84.964844 72.742188 84.679688 72.664062 84.320312 C 72.65625 84.296875 71.976562 81.347656 69.636719 80.476562 C 67.625 79.730469 65.902344 82.957031 65.886719 82.992188 C 65.738281 83.277344 65.449219 83.488281 65.128906 83.53125 C 64.796875 83.574219 64.476562 83.460938 64.257812 83.21875 C 63.875 82.800781 63.449219 82.617188 62.925781 82.667969 C 60.785156 82.84375 57.714844 86.402344 56.175781 88.75 C 54.730469 90.949219 52.894531 92.167969 50.761719 93.585938 C 50.109375 94.023438 49.414062 94.484375 48.671875 95.003906 C 46.269531 96.710938 45.503906 100.078125 46.253906 105.617188 C 46.707031 112.976562 53.144531 115.484375 56.949219 116.328125 C 58.566406 116.683594 59.976562 117.648438 60.925781 119.042969 Z M 45.132812 161.476562 C 45.503906 162.964844 45.863281 164.390625 46.167969 165.738281 C 46.347656 166.523438 46.53125 167.460938 46.734375 168.507812 C 48.253906 176.265625 50.804688 189.210938 60.472656 188.167969 C 64.667969 187.699219 69.417969 186.878906 73.8125 186.011719 C 69.140625 180.808594 71.820312 173.292969 73.160156 170.359375 C 69.394531 169.976562 66.355469 169.628906 65.546875 169.421875 C 64.484375 169.160156 63.207031 168.019531 61.429688 157.78125 C 60.535156 152.585938 59.933594 147.402344 59.925781 147.347656 C 59.863281 146.800781 60.253906 146.304688 60.804688 146.246094 C 61.371094 146.183594 61.847656 146.574219 61.910156 147.125 C 61.960938 147.558594 62.015625 147.992188 62.066406 148.4375 L 87.347656 125.277344 C 87.171875 125.269531 87.015625 125.21875 86.875 125.132812 L 77.503906 125.816406 C 75.378906 125.984375 73.484375 124.425781 73.238281 122.285156 L 73.203125 121.980469 L 63.78125 123.878906 C 63.773438 124.289062 63.753906 124.6875 63.726562 125.078125 C 63.5625 127.078125 62.039062 128.742188 60.039062 129.105469 C 55.914062 129.871094 46.070312 132.265625 43.617188 138.058594 C 40.882812 144.546875 43.242188 153.933594 45.132812 161.476562 Z M 29.285156 188.273438 L 35.941406 195.023438 L 48.941406 182.824219 C 46.636719 178.355469 45.53125 172.785156 44.765625 168.890625 C 44.703125 168.574219 44.644531 168.273438 44.582031 167.976562 L 29.300781 183.269531 C 27.925781 184.644531 27.917969 186.886719 29.285156 188.273438 Z M 58.828125 218.222656 C 60.167969 219.570312 62.316406 219.640625 63.738281 218.371094 L 93.777344 191.464844 C 91.765625 189.386719 89.730469 186.644531 88.453125 184.808594 C 85.238281 185.601562 71.238281 188.984375 60.699219 190.152344 C 55.695312 190.707031 52.320312 188.226562 49.976562 184.609375 L 37.359375 196.449219 Z M 100.042969 372.394531 C 99.320312 370.472656 97.9375 367.59375 96.214844 366.550781 C 95.074219 365.863281 93.585938 365.460938 92.019531 365.035156 C 89.746094 364.425781 87.171875 363.730469 85.046875 361.964844 C 81.699219 359.171875 81.097656 352.996094 81.148438 349.847656 L 64.988281 349.847656 L 64.363281 372.542969 Z M 90.375 347.871094 L 84.28125 346.097656 L 84.136719 348.90625 C 84.109375 349.429688 83.683594 349.835938 83.160156 349.855469 C 83.097656 352.863281 83.734375 358.277344 86.335938 360.441406 C 88.121094 361.929688 90.367188 362.53125 92.542969 363.113281 C 94.253906 363.574219 95.875 364.007812 97.257812 364.84375 C 98.832031 365.800781 100.058594 367.679688 100.921875 369.402344 L 102.417969 369.046875 C 101.617188 364.921875 97.9375 362.433594 94.890625 361.050781 C 90.53125 359.078125 90.164062 357.433594 89.695312 353.585938 C 89.339844 350.761719 89.984375 348.769531 90.375 347.871094 Z M 98.761719 194.265625 C 98.597656 194.292969 98.433594 194.335938 98.25 194.34375 C 98.214844 194.34375 98.171875 194.351562 98.128906 194.351562 C 97.320312 194.351562 96.308594 193.761719 95.238281 192.847656 L 65.078125 219.867188 C 64.015625 220.816406 62.691406 221.285156 61.371094 221.285156 C 61.222656 221.285156 61.074219 221.277344 60.933594 221.269531 L 63.902344 347.855469 L 82.195312 347.855469 L 89.128906 214.8125 C 89.128906 214.734375 89.148438 214.65625 89.171875 214.578125 L 91.417969 207.097656 C 91.574219 206.566406 92.140625 206.269531 92.664062 206.425781 C 93.195312 206.582031 93.488281 207.140625 93.332031 207.671875 L 91.121094 215.039062 L 84.394531 344.042969 L 94.941406 347.113281 C 96.953125 340.179688 109.128906 297.511719 110.9375 277.816406 C 112.738281 258.09375 100.679688 202.851562 98.761719 194.265625 Z M 111.589844 253.457031 L 233.179688 253.457031 C 231.351562 250.691406 227.148438 244.433594 222.09375 237.546875 C 215.070312 227.96875 214.023438 220.042969 219.003906 213.988281 C 222.5625 209.65625 228.035156 209.402344 230.960938 209.628906 C 230.253906 208.246094 229.636719 206.90625 229.105469 205.722656 L 204.09375 205.722656 C 203.835938 205.722656 203.582031 205.617188 203.390625 205.4375 L 193.453125 195.65625 L 180.617188 202.765625 C 180.46875 202.851562 180.292969 202.886719 180.128906 202.886719 C 179.945312 202.886719 179.773438 202.84375 179.617188 202.746094 L 167.789062 195.667969 L 150.429688 219.078125 C 150.238281 219.328125 149.941406 219.484375 149.628906 219.484375 L 106.03125 219.484375 C 108.066406 230.105469 110.207031 242.382812 111.589844 253.457031 Z M 253.679688 267.96875 L 256.5 267.96875 L 251.496094 254.953125 L 250.035156 253.40625 C 250.015625 253.40625 250 253.414062 249.984375 253.414062 L 235.554688 253.414062 C 235.738281 253.691406 235.839844 253.855469 235.851562 253.867188 C 235.972656 254.046875 236.023438 254.273438 236.007812 254.492188 L 235.632812 258.859375 C 235.589844 259.382812 235.152344 259.773438 234.632812 259.773438 C 234.625 259.773438 234.632812 259.773438 234.605469 259.773438 C 234.152344 259.773438 226.296875 259.824219 223.703125 263.242188 C 222.265625 265.140625 222.09375 266.765625 222.136719 267.636719 Z M 210.804688 274.265625 L 210.804688 277.738281 L 347.195312 277.738281 L 347.195312 274.265625 C 347.195312 271.898438 345.265625 269.96875 342.898438 269.96875 L 258.25 269.96875 C 258.164062 269.996094 258.066406 270.011719 257.972656 270.011719 C 257.972656 270.011719 257.960938 270.011719 257.960938 270.011719 L 253.714844 269.96875 L 215.105469 269.96875 C 212.738281 269.96875 210.804688 271.898438 210.804688 274.265625 Z M 265.960938 301.945312 L 258.503906 301.945312 L 262.445312 306.800781 C 263.125 304.863281 264.636719 303.15625 265.960938 301.945312 Z M 268.058594 311.34375 C 266.628906 309.0625 265.402344 307.210938 264.835938 306.375 C 264.324219 307.261719 264.011719 308.203125 264.089844 309.097656 C 264.148438 309.792969 264.410156 310.308594 264.898438 310.664062 C 265.707031 311.273438 267.011719 311.378906 268.058594 311.34375 Z M 274.410156 338.675781 C 274.933594 340.625 275.785156 342.554688 276.296875 342.957031 C 278.054688 341.824219 286.785156 331.222656 287.339844 329.855469 C 287.351562 329.777344 287.289062 329.246094 287.238281 328.863281 C 287.019531 327.046875 286.644531 323.992188 289.109375 321.675781 C 290.875 320.015625 293.007812 319.78125 294.625 319.929688 C 292.582031 316.980469 290.136719 313.597656 287.75 310.359375 C 286.558594 310.21875 282.519531 309.941406 279.066406 312.308594 C 275.097656 315.023438 275.132812 319.207031 275.132812 319.382812 C 275.132812 319.425781 275.113281 319.460938 275.105469 319.503906 C 276.160156 321.566406 276.976562 323.433594 277.289062 324.785156 C 278.464844 329.820312 278.273438 330.480469 276.238281 334.910156 L 275.609375 336.285156 C 275.253906 337.066406 274.835938 337.875 274.410156 338.675781 Z M 299.472656 327.644531 C 299.089844 326.679688 297.886719 324.75 296.253906 322.3125 C 295.765625 322.136719 292.625 321.128906 290.484375 323.140625 C 288.761719 324.765625 289.03125 326.992188 289.230469 328.628906 C 289.316406 329.332031 289.378906 329.890625 289.28125 330.351562 C 288.96875 331.8125 278.910156 344.085938 276.941406 344.878906 C 276.734375 344.957031 276.523438 345 276.308594 345 C 276.027344 345 275.75 344.929688 275.488281 344.800781 C 274.453125 344.277344 273.644531 342.617188 273.105469 341.164062 C 270.703125 345.800781 269.605469 349.011719 272.695312 350.726562 C 277.421875 353.351562 283.207031 348.125 289.71875 341.539062 C 290.960938 340.277344 292.109375 339.15625 293.144531 338.128906 C 298.878906 332.480469 300.636719 330.558594 299.472656 327.644531 Z M 281.46875 301.945312 L 269.136719 301.945312 C 268.34375 302.503906 267.125 303.488281 266.082031 304.671875 C 266.109375 304.695312 266.144531 304.722656 266.167969 304.75 C 266.429688 305.132812 270.414062 311.019531 273.574219 316.648438 C 274.105469 314.832031 275.289062 312.472656 277.941406 310.664062 C 280.882812 308.644531 284.113281 308.253906 286.210938 308.261719 C 284.46875 305.921875 282.824219 303.738281 281.46875 301.945312 Z M 347.195312 295.648438 L 347.195312 279.738281 L 210.804688 279.738281 L 210.804688 295.648438 C 210.804688 298.015625 212.738281 299.945312 215.105469 299.945312 L 342.898438 299.945312 C 345.273438 299.945312 347.195312 298.015625 347.195312 295.648438 Z M 320.992188 273.875 C 320.992188 272.371094 322.21875 271.140625 323.726562 271.140625 C 325.230469 271.140625 326.457031 272.371094 326.457031 273.875 C 326.457031 275.378906 325.230469 276.605469 323.726562 276.605469 C 322.21875 276.605469 320.992188 275.378906 320.992188 273.875 Z M 322.996094 273.875 C 322.996094 274.273438 323.324219 274.605469 323.726562 274.605469 C 324.125 274.605469 324.457031 274.273438 324.457031 273.875 C 324.457031 273.472656 324.125 273.144531 323.726562 273.144531 C 323.316406 273.144531 322.996094 273.472656 322.996094 273.875 Z M 327.347656 273.875 C 327.347656 272.371094 328.574219 271.140625 330.078125 271.140625 C 331.582031 271.140625 332.8125 272.371094 332.8125 273.875 C 332.8125 275.378906 331.582031 276.605469 330.078125 276.605469 C 328.574219 276.605469 327.347656 275.378906 327.347656 273.875 Z M 329.347656 273.875 C 329.347656 274.273438 329.679688 274.605469 330.078125 274.605469 C 330.480469 274.605469 330.808594 274.273438 330.808594 273.875 C 330.808594 273.472656 330.480469 273.144531 330.078125 273.144531 C 329.679688 273.144531 329.347656 273.472656 329.347656 273.875 Z M 333.421875 273.875 C 333.421875 272.371094 334.648438 271.140625 336.152344 271.140625 C 337.65625 271.140625 338.886719 272.371094 338.886719 273.875 C 338.886719 275.378906 337.65625 276.605469 336.152344 276.605469 C 334.648438 276.605469 333.421875 275.378906 333.421875 273.875 Z M 335.421875 273.875 C 335.421875 274.273438 335.753906 274.605469 336.152344 274.605469 C 336.554688 274.605469 336.882812 274.273438 336.882812 273.875 C 336.882812 273.472656 336.554688 273.144531 336.152344 273.144531 C 335.753906 273.144531 335.421875 273.472656 335.421875 273.875 Z M 123.695312 100.753906 C 123.695312 98.988281 125.132812 97.5625 126.890625 97.5625 C 128.648438 97.5625 130.082031 98.996094 130.082031 100.753906 C 130.082031 102.511719 128.648438 103.949219 126.890625 103.949219 C 125.132812 103.949219 123.695312 102.511719 123.695312 100.753906 Z M 125.695312 100.753906 C 125.695312 101.417969 126.238281 101.945312 126.890625 101.945312 C 127.542969 101.945312 128.082031 101.40625 128.082031 100.753906 C 128.082031 100.101562 127.542969 99.5625 126.890625 99.5625 C 126.238281 99.5625 125.695312 100.09375 125.695312 100.753906 Z M 129.65625 94.796875 C 129.65625 93.03125 131.09375 91.601562 132.851562 91.601562 C 134.609375 91.601562 136.042969 93.039062 136.042969 94.796875 C 136.042969 96.554688 134.609375 97.988281 132.851562 97.988281 C 131.09375 97.988281 129.65625 96.554688 129.65625 94.796875 Z M 131.65625 94.796875 C 131.65625 95.457031 132.199219 95.988281 132.851562 95.988281 C 133.503906 95.988281 134.042969 95.449219 134.042969 94.796875 C 134.042969 94.144531 133.503906 93.605469 132.851562 93.605469 C 132.199219 93.605469 131.65625 94.136719 131.65625 94.796875 Z M 117.742188 106.550781 C 117.742188 104.78125 119.179688 103.355469 120.9375 103.355469 C 122.695312 103.355469 124.128906 104.792969 124.128906 106.550781 C 124.128906 108.304688 122.695312 109.742188 120.9375 109.742188 C 119.179688 109.742188 117.742188 108.316406 117.742188 106.550781 Z M 119.746094 106.550781 C 119.746094 107.210938 120.285156 107.742188 120.9375 107.742188 C 121.589844 107.742188 122.128906 107.203125 122.128906 106.550781 C 122.128906 105.898438 121.589844 105.355469 120.9375 105.355469 C 120.285156 105.355469 119.746094 105.898438 119.746094 106.550781 Z M 68.140625 103.007812 C 67.582031 103.285156 67.46875 104.183594 67.886719 105.007812 C 68.304688 105.835938 69.097656 106.269531 69.652344 105.992188 C 70.210938 105.714844 70.324219 104.816406 69.90625 103.992188 C 69.488281 103.164062 68.695312 102.722656 68.140625 103.007812 Z M 75.589844 99.144531 C 75.03125 99.425781 74.917969 100.320312 75.335938 101.148438 C 75.753906 101.972656 76.546875 102.40625 77.101562 102.128906 C 77.660156 101.851562 77.773438 100.957031 77.355469 100.128906 C 76.9375 99.300781 76.144531 98.867188 75.589844 99.144531 Z M 73.527344 106.765625 C 73.824219 106.820312 74.128906 106.835938 74.441406 106.808594 C 74.761719 106.773438 75.09375 106.707031 75.414062 106.523438 C 75.738281 106.359375 76.050781 106.089844 76.222656 105.730469 C 76.40625 105.367188 76.441406 105 76.320312 104.589844 C 76.292969 104.503906 76.234375 104.425781 76.15625 104.375 C 75.964844 104.253906 75.71875 104.304688 75.589844 104.488281 L 75.449219 104.695312 C 75.363281 104.835938 75.265625 105.007812 75.171875 105.121094 C 75.074219 105.234375 74.960938 105.339844 74.816406 105.4375 C 74.667969 105.53125 74.457031 105.59375 74.25 105.660156 C 74.03125 105.714844 73.789062 105.757812 73.542969 105.816406 L 73.507812 105.828125 C 73.328125 105.871094 73.171875 106.019531 73.136719 106.21875 C 73.082031 106.472656 73.257812 106.722656 73.527344 106.765625 Z M 76.136719 109.367188 C 75.683594 109.621094 75.199219 109.800781 74.667969 109.882812 C 74.144531 109.984375 73.585938 109.984375 73.023438 109.984375 L 72.980469 109.984375 C 72.785156 109.984375 72.613281 110.117188 72.570312 110.316406 C 72.515625 110.542969 72.65625 110.769531 72.882812 110.820312 C 73.1875 110.890625 73.5 110.960938 73.824219 111.003906 C 74.144531 111.011719 74.476562 111.054688 74.796875 111.011719 C 75.457031 110.996094 76.113281 110.757812 76.71875 110.472656 C 77.320312 110.160156 77.851562 109.714844 78.269531 109.203125 C 78.6875 108.671875 79 108.113281 79.183594 107.4375 C 79.234375 107.226562 79.148438 107 78.957031 106.886719 C 78.722656 106.757812 78.433594 106.835938 78.304688 107.070312 L 78.269531 107.132812 C 78.027344 107.558594 77.703125 108.035156 77.347656 108.417969 C 77.007812 108.800781 76.597656 109.125 76.136719 109.367188 Z M 68.679688 101.101562 C 68.773438 101.085938 68.863281 101.015625 68.898438 100.910156 C 68.957031 100.753906 68.878906 100.582031 68.722656 100.519531 C 68.289062 100.355469 67.863281 100.3125 67.410156 100.355469 C 66.957031 100.382812 66.511719 100.527344 66.105469 100.773438 C 65.695312 101.007812 65.339844 101.347656 65.101562 101.746094 C 64.851562 102.136719 64.738281 102.582031 64.695312 103.015625 C 64.683594 103.15625 64.738281 103.296875 64.859375 103.382812 C 65.042969 103.511719 65.292969 103.476562 65.433594 103.296875 L 65.460938 103.261719 C 65.894531 102.660156 66.261719 102.171875 66.765625 101.824219 C 67.015625 101.644531 67.304688 101.511719 67.617188 101.382812 C 67.929688 101.269531 68.289062 101.191406 68.628906 101.113281 Z M 232.449219 24.113281 C 231.863281 24.332031 231.648438 25.210938 231.976562 26.070312 C 232.308594 26.933594 233.039062 27.453125 233.621094 27.234375 C 234.207031 27.019531 234.421875 26.140625 234.09375 25.277344 C 233.761719 24.417969 233.03125 23.894531 232.449219 24.113281 Z M 224.5625 26.984375 C 223.980469 27.203125 223.761719 28.082031 224.09375 28.941406 C 224.425781 29.800781 225.15625 30.324219 225.738281 30.105469 C 226.320312 29.890625 226.539062 29.011719 226.207031 28.148438 C 225.878906 27.289062 225.144531 26.765625 224.5625 26.984375 Z M 228.976562 31.898438 C 229.359375 32.011719 229.765625 31.96875 230.105469 31.839844 C 230.453125 31.726562 230.734375 31.523438 230.976562 31.316406 C 231.210938 31.109375 231.402344 30.863281 231.570312 30.613281 C 231.671875 30.457031 231.671875 30.238281 231.558594 30.074219 C 231.402344 29.855469 231.109375 29.800781 230.890625 29.960938 L 230.863281 29.976562 C 230.65625 30.125 230.464844 30.265625 230.273438 30.394531 C 230.070312 30.5 229.890625 30.613281 229.722656 30.65625 C 229.550781 30.707031 229.402344 30.714844 229.253906 30.707031 C 229.113281 30.699219 228.914062 30.648438 228.75 30.621094 L 228.503906 30.578125 C 228.417969 30.558594 228.324219 30.578125 228.234375 30.628906 C 228.042969 30.742188 227.976562 30.996094 228.085938 31.1875 C 228.296875 31.570312 228.59375 31.792969 228.976562 31.898438 Z M 234.292969 32.578125 L 234.257812 32.613281 C 233.875 33.03125 233.5 33.4375 233.066406 33.753906 C 232.648438 34.082031 232.179688 34.328125 231.691406 34.484375 C 231.203125 34.648438 230.691406 34.734375 230.160156 34.726562 C 229.636719 34.734375 229.070312 34.648438 228.59375 34.535156 L 228.53125 34.519531 C 228.324219 34.464844 228.097656 34.5625 227.992188 34.761719 C 227.871094 34.996094 227.957031 35.285156 228.199219 35.414062 C 228.828125 35.746094 229.445312 35.882812 230.125 35.945312 C 230.785156 35.988281 231.472656 35.902344 232.109375 35.667969 C 232.734375 35.414062 233.34375 35.09375 233.804688 34.613281 C 234.058594 34.40625 234.25 34.136719 234.457031 33.890625 C 234.640625 33.628906 234.804688 33.351562 234.960938 33.074219 C 235.058594 32.910156 235.03125 32.691406 234.882812 32.558594 C 234.71875 32.394531 234.449219 32.402344 234.292969 32.578125 Z M 225.144531 23.773438 C 224.695312 23.679688 224.207031 23.714844 223.753906 23.851562 C 223.300781 23.992188 222.890625 24.21875 222.5625 24.53125 C 222.230469 24.835938 221.96875 25.175781 221.796875 25.609375 C 221.761719 25.707031 221.769531 25.808594 221.832031 25.898438 C 221.925781 26.035156 222.117188 26.0625 222.25 25.964844 L 222.292969 25.941406 C 222.570312 25.738281 222.875 25.53125 223.171875 25.375 C 223.476562 25.226562 223.769531 25.113281 224.074219 25.042969 C 224.675781 24.90625 225.277344 24.972656 226.015625 25.054688 L 226.058594 25.0625 C 226.199219 25.078125 226.339844 25.019531 226.433594 24.90625 C 226.574219 24.722656 226.539062 24.46875 226.355469 24.332031 C 226.007812 24.070312 225.609375 23.851562 225.144531 23.773438 Z M 230.679688 23.21875 L 230.722656 23.191406 C 231.003906 22.992188 231.308594 22.78125 231.601562 22.625 C 231.90625 22.476562 232.203125 22.363281 232.507812 22.296875 C 233.109375 22.15625 233.710938 22.226562 234.449219 22.304688 L 234.492188 22.3125 C 234.632812 22.328125 234.769531 22.269531 234.867188 22.15625 C 235.007812 21.972656 234.972656 21.722656 234.789062 21.582031 C 234.441406 21.320312 234.039062 21.101562 233.578125 21.023438 C 233.125 20.929688 232.640625 20.964844 232.1875 21.101562 C 231.734375 21.242188 231.324219 21.46875 230.996094 21.78125 C 230.664062 22.085938 230.402344 22.425781 230.226562 22.859375 C 230.195312 22.957031 230.203125 23.0625 230.261719 23.148438 C 230.359375 23.285156 230.542969 23.320312 230.679688 23.21875 Z M 276.097656 162.347656 C 275.644531 162.296875 275.226562 162.800781 275.160156 163.460938 C 275.089844 164.121094 275.394531 164.703125 275.835938 164.75 C 276.289062 164.800781 276.707031 164.296875 276.777344 163.636719 C 276.855469 162.972656 276.550781 162.398438 276.097656 162.347656 Z M 277.820312 160.71875 C 277.550781 160.519531 277.230469 160.371094 276.898438 160.320312 C 276.558594 160.277344 276.21875 160.269531 275.90625 160.371094 C 275.59375 160.460938 275.316406 160.597656 275.0625 160.824219 C 275.011719 160.867188 274.976562 160.945312 274.992188 161.023438 C 275.011719 161.148438 275.125 161.226562 275.246094 161.207031 L 275.28125 161.199219 C 275.523438 161.164062 275.792969 161.121094 276.027344 161.121094 C 276.273438 161.128906 276.5 161.128906 276.714844 161.199219 C 276.925781 161.269531 277.140625 161.320312 277.332031 161.453125 C 277.542969 161.546875 277.734375 161.703125 277.96875 161.84375 L 278.003906 161.859375 C 278.082031 161.902344 278.1875 161.914062 278.28125 161.867188 C 278.429688 161.800781 278.492188 161.625 278.421875 161.476562 C 278.292969 161.179688 278.089844 160.929688 277.820312 160.71875 Z M 309.8125 136.222656 C 309.621094 136.535156 309.296875 136.703125 308.957031 136.703125 C 308.785156 136.703125 308.601562 136.65625 308.4375 136.554688 L 293.179688 127.253906 L 279.230469 135.300781 C 279.074219 135.386719 278.898438 135.429688 278.726562 135.429688 C 278.550781 135.429688 278.378906 135.386719 278.222656 135.300781 L 264.351562 127.296875 L 259.539062 131.132812 C 259.355469 131.28125 259.128906 131.351562 258.910156 131.351562 C 258.617188 131.351562 258.328125 131.222656 258.128906 130.976562 C 257.78125 130.542969 257.847656 129.914062 258.285156 129.566406 L 263.253906 125.601562 L 263.253906 109.386719 C 263.253906 109.027344 263.445312 108.699219 263.757812 108.515625 L 278.222656 100.171875 C 278.535156 99.988281 278.910156 99.988281 279.222656 100.171875 L 293.683594 108.515625 C 294 108.699219 294.191406 109.019531 294.191406 109.386719 L 294.191406 125.523438 L 309.472656 134.839844 C 309.949219 135.136719 310.097656 135.753906 309.8125 136.222656 Z M 292.199219 109.976562 L 278.734375 102.207031 L 265.273438 109.976562 L 265.273438 125.515625 L 278.734375 133.28125 L 292.199219 125.515625 Z M 331.078125 100.085938 C 331.445312 100.503906 331.402344 101.128906 330.984375 101.496094 L 323.195312 108.304688 L 323.195312 118.648438 C 323.195312 119.007812 323.003906 119.335938 322.691406 119.519531 L 313.335938 124.921875 C 313.179688 125.007812 313.003906 125.054688 312.832031 125.054688 C 312.65625 125.054688 312.480469 125.007812 312.324219 124.921875 L 302.972656 119.519531 C 302.65625 119.335938 302.464844 119.015625 302.464844 118.648438 L 302.464844 107.855469 C 302.464844 107.496094 302.65625 107.167969 302.972656 106.984375 L 312.324219 101.582031 C 312.640625 101.398438 313.011719 101.398438 313.328125 101.582031 L 322.0625 106.617188 L 329.652344 99.980469 C 330.078125 99.625 330.714844 99.667969 331.078125 100.085938 Z M 321.191406 108.429688 L 312.839844 103.609375 L 304.484375 108.429688 L 304.484375 118.066406 L 312.839844 122.886719 L 321.191406 118.066406 Z M 321.191406 108.429688 " fill-opacity="1" fill-rule="nonzero"/></g></svg>