<svg xmlns="http://www.w3.org/2000/svg" xmlns:xlink="http://www.w3.org/1999/xlink" width="500" zoomAndPan="magnify" viewBox="0 0 375 374.999991" height="500" preserveAspectRatio="xMidYMid meet" version="1.0"><defs><g/></defs><rect x="-37.5" width="450" fill="#ffffff" y="-37.499999" height="449.999989" fill-opacity="1"/><rect x="-37.5" width="450" fill="#ffffff" y="-37.499999" height="449.999989" fill-opacity="1"/><rect x="-37.5" width="450" fill="#709775" y="-37.499999" height="449.999989" fill-opacity="1"/><g fill="#ffffff" fill-opacity="1"><g transform="translate(5.929692, 287.249983)"><g><path d="M 141.921875 -16.359375 C 129.316406 -4.515625 114.738281 1.40625 98.1875 1.40625 C 85.769531 1.40625 74.015625 -1.363281 62.921875 -6.90625 C 51.828125 -12.457031 42.09375 -19.9375 33.71875 -29.34375 C 25.34375 -38.75 18.707031 -49.707031 13.8125 -62.21875 C 8.925781 -74.726562 6.484375 -87.941406 6.484375 -101.859375 C 6.484375 -115.960938 8.972656 -129.082031 13.953125 -141.21875 C 18.941406 -153.351562 25.8125 -163.882812 34.5625 -172.8125 C 43.3125 -181.75 53.609375 -188.800781 65.453125 -193.96875 C 77.304688 -199.144531 90.003906 -201.734375 103.546875 -201.734375 C 112.015625 -201.734375 120.101562 -200.742188 127.8125 -198.765625 C 135.53125 -196.796875 142.679688 -193.882812 149.265625 -190.03125 C 155.847656 -186.175781 161.722656 -181.566406 166.890625 -176.203125 C 172.066406 -170.847656 176.347656 -164.78125 179.734375 -158 L 138.828125 -126.6875 C 135.429688 -134.582031 130.300781 -140.925781 123.4375 -145.71875 C 116.570312 -150.519531 109.285156 -152.921875 101.578125 -152.921875 C 95.929688 -152.921875 90.707031 -151.601562 85.90625 -148.96875 C 81.113281 -146.34375 76.976562 -142.675781 73.5 -137.96875 C 70.019531 -133.269531 67.289062 -127.675781 65.3125 -121.1875 C 63.34375 -114.695312 62.359375 -107.597656 62.359375 -99.890625 C 62.359375 -91.984375 63.34375 -84.832031 65.3125 -78.4375 C 67.289062 -72.039062 70.066406 -66.535156 73.640625 -61.921875 C 77.210938 -57.316406 81.488281 -53.742188 86.46875 -51.203125 C 91.457031 -48.671875 96.960938 -47.40625 102.984375 -47.40625 C 109.753906 -47.40625 116.289062 -49.097656 122.59375 -52.484375 C 128.894531 -55.867188 134.773438 -60.757812 140.234375 -67.15625 L 104.96875 -67.15625 L 104.96875 -106.65625 L 187.359375 -106.65625 L 187.359375 0 L 141.921875 0 Z M 141.921875 -16.359375 "/></g></g></g><g fill="#ffffff" fill-opacity="1"><g transform="translate(203.157456, 287.249983)"><g><path d="M 17.21875 0 L 17.21875 -200.328125 L 72.234375 -200.328125 L 72.234375 -47.96875 L 163.09375 -47.96875 L 163.09375 0 Z M 17.21875 0 "/></g></g></g></svg>